# WaveFront *.obj file (generated by Cinema 4D)

mtllib ./brochure.mtl

v 11.008462 -0.409562 14.000000
v 0.009210 -0.281291 14.000000
v 11.006965 -0.059046 14.000000
v 0.000001 0.000000 14.000000
v 11.008191 -0.113146 14.000000
v 0.011662 -0.389491 14.000000
v 11.010569 -0.234402 14.000000
v 11.008462 -0.409562 -14.000000
v 0.009210 -0.281291 -14.000000
v 11.006965 -0.059046 -14.000000
v 0.000001 0.000000 -14.000000
v 11.008191 -0.113146 -14.000000
v 0.011662 -0.389491 -14.000000
v 11.010569 -0.234402 -14.000000
# 14 vertices

vn -0.011661 -0.999932 0.000000
vn -0.020204 0.999796 0.000000
vn -0.005364 -0.999986 0.000000
vn 0.010278 0.999947 0.000000
vn 0.025122 -0.999684 0.000000
vn -0.014099 0.999901 -0.000000
# 6 normals

vt 0.000000 0.000000 0.000000
vt 0.000000 1.000000 0.000000
vt 0.166667 1.000000 0.000000
vt 0.166667 0.000000 0.000000
vt 0.333333 1.000000 0.000000
vt 0.333333 0.000000 0.000000
vt 0.500000 1.000000 0.000000
vt 0.500000 0.000000 0.000000
vt 0.666667 1.000000 0.000000
vt 0.666667 0.000000 0.000000
vt 0.833333 1.000000 0.000000
vt 0.833333 0.000000 0.000000
vt 1.000000 1.000000 0.000000
vt 1.000000 0.000000 0.000000
# 14 texture coordinates

o Plane
usemtl Mat
f 2/4/1 9/3/1 8/2/1 1/1/1
f 3/6/2 10/5/2 9/3/2 2/4/2
f 4/8/3 11/7/3 10/5/3 3/6/3
f 5/10/4 12/9/4 11/7/4 4/8/4
f 6/12/5 13/11/5 12/9/5 5/10/5
f 7/14/6 14/13/6 13/11/6 6/12/6

